<svg width="151" height="178" viewBox="0 0 151 178" fill="none" xmlns="http://www.w3.org/2000/svg">
	<path d="M59 46C59 20.5949 79.5949 0 105 0V0C130.405 0 151 20.5949 151 46V46C151 71.4051 130.405 92 105 92H59V46Z" fill="white" />
	<path d="M59 86H105C130.405 86 151 106.595 151 132V132C151 157.405 130.405 178 105 178H59V86Z" fill="white" />
	<path d="M59 46C59 38.0315 61.0261 30.5362 64.5914 24.0012C28.8809 24.2211 0 53.2378 0 89C0 122.876 25.9141 150.699 59 153.727V128.553C39.7549 125.658 25 109.052 25 89C25 68.9478 39.7549 52.3419 59 49.447V46Z" fill="#55CAE7" />
	<circle cx="65" cy="89" r="15" fill="white" />
	<circle cx="65" cy="89" r="10" fill="#E5E114" />
	<mask id="mask0_8_228" style="mask-type:alpha" maskUnits="userSpaceOnUse" x="65" y="6" width="80" height="80">
		<path d="M105 84H67V46C67 25.0132 84.0132 8 105 8C125.987 8 143 25.0132 143 46C143 66.9868 125.987 84 105 84Z" fill="#D9D9D9" stroke="white" stroke-width="4" />
	</mask>
	<g mask="url(#mask0_8_228)">
		<path d="M65 46C65 23.9086 82.9086 6 105 6V6C127.091 6 145 23.9086 145 46V46C145 68.0914 127.091 86 105 86H65V46Z" fill="#D9D9D9" />
		<circle cx="75" cy="36" r="40" fill="#55E77A" />
		<circle cx="135" cy="27" r="40" fill="#55CAE7" />
		<circle cx="105" cy="86" r="40" fill="#D45C5C" />
		<circle cx="105" cy="46" r="8" fill="white" stroke="white" stroke-width="4" />
	</g>
	<path fill-rule="evenodd" clip-rule="evenodd" d="M83 92H78V109.309C73.7937 111.966 71 116.657 71 122C71 125.377 72.1163 128.494 74 131.001C74.5402 131.721 75.1436 132.389 75.8019 133C76.6247 133.763 77.5333 134.435 78.5117 135H90.3641C90.8586 135.24 91.3302 135.52 91.775 135.835C91.7788 135.838 91.7826 135.841 91.7864 135.843C92.6309 136.443 93.3782 137.171 94 137.999C95.2558 139.671 96 141.748 96 144C96 146.252 95.2558 148.329 94 150.001C92.7585 151.653 91.0169 152.909 89 153.542C88.053 153.84 87.0452 154 86 154H65V159H78V172H83V159H86C87.0274 159 88.0307 158.897 89 158.7V172H94V156.691C98.2063 154.034 101 149.343 101 144C101 140.623 99.8837 137.506 98 134.999C97.4598 134.279 96.8564 133.611 96.1981 133C94.8146 131.717 93.1886 130.691 91.3964 130H79.999C79.2422 129.431 78.5686 128.758 78 128.001C76.7442 126.329 76 124.252 76 122C76 119.748 76.7442 117.671 78 115.999C79.2415 114.347 80.9831 113.091 83 112.458C83.947 112.16 84.9548 112 86 112H139.649C138.633 110.245 137.488 108.574 136.227 107H94V92H89V107H86C84.9726 107 83.9693 107.103 83 107.3V92Z" fill="#D45C5C" />
	<path fill-rule="evenodd" clip-rule="evenodd" d="M94 172H105C127.091 172 145 154.091 145 132C145 124.714 143.052 117.883 139.649 112H86C84.9548 112 83.947 112.16 83 112.458C80.9831 113.091 79.2415 114.347 78 115.999C76.7442 117.671 76 119.748 76 122C76 124.252 76.7442 126.329 78 128.001C78.5686 128.758 79.2422 129.431 79.999 130H91.3964C93.1886 130.691 94.8146 131.717 96.1981 133C96.8564 133.611 97.4598 134.279 98 134.999C99.8837 137.506 101 140.623 101 144C101 149.343 98.2063 154.034 94 156.691V172ZM125 147C133.284 147 140 140.284 140 132C140 123.716 133.284 117 125 117C116.716 117 110 123.716 110 132C110 140.284 116.716 147 125 147Z" fill="#D45C5C" />
	<path d="M105 92H94V107H136.227C128.896 97.8554 117.632 92 105 92Z" fill="#E5E114" />
	<path d="M89 92H83V107.3C83.9693 107.103 84.9726 107 86 107H89V92Z" fill="#55CAE7" />
	<path d="M65 172H78V159H65V172Z" fill="#E5E114" />
	<path d="M83 172H89V158.7C88.0307 158.897 87.0274 159 86 159H83V172Z" fill="#55CAE7" />
	<path fill-rule="evenodd" clip-rule="evenodd" d="M94 92H89V107H86C84.9726 107 83.9693 107.103 83 107.3V92H78V109.309C73.7937 111.966 71 116.657 71 122C71 125.377 72.1163 128.494 74 131.001C74.5402 131.721 75.1436 132.389 75.8019 133C76.6247 133.763 77.5333 134.435 78.5117 135H90.3641C90.8586 135.24 91.3302 135.52 91.775 135.835L91.7864 135.843C92.6309 136.443 93.3782 137.171 94 137.999C95.2558 139.671 96 141.748 96 144C96 146.252 95.2558 148.329 94 150.001C92.7585 151.653 91.0169 152.909 89 153.542C88.053 153.84 87.0452 154 86 154H65V159H78V172H83V159H86C87.0274 159 88.0307 158.897 89 158.7V172H94V156.691C98.2063 154.034 101 149.343 101 144C101 140.623 99.8837 137.506 98 134.999C97.4598 134.279 96.8564 133.611 96.1981 133C94.8146 131.717 93.1886 130.691 91.3964 130H79.999C79.2422 129.431 78.5686 128.758 78 128.001C76.7442 126.329 76 124.252 76 122C76 119.748 76.7442 117.671 78 115.999C79.2415 114.347 80.9831 113.091 83 112.458C83.947 112.16 84.9548 112 86 112H139.649C138.633 110.245 137.488 108.574 136.227 107H94V92Z" fill="white" />
	<path d="M78 92H65V154H86C87.0452 154 88.053 153.84 89 153.542C91.0169 152.909 92.7585 151.653 94 150.001C95.2558 148.329 96 146.252 96 144C96 141.748 95.2558 139.671 94 137.999C93.3782 137.171 92.6309 136.443 91.7864 135.843L91.775 135.835C91.3302 135.52 90.8586 135.24 90.3641 135H78.5117C77.5333 134.435 76.6247 133.763 75.8019 133C75.1436 132.389 74.5402 131.721 74 131.001C72.1163 128.494 71 125.377 71 122C71 116.657 73.7937 111.966 78 109.309V92Z" fill="#55E77A" />
	<circle cx="65" cy="89" r="15" fill="white" />
	<circle cx="65" cy="89" r="10" fill="#E5E114" />
</svg>
